<svg width="32" height="32" viewBox="0 0 32 32" fill="none" xmlns="http://www.w3.org/2000/svg">
<circle cx="16" cy="16" r="15" fill="#009DEC" stroke="white" stroke-width="2"/>
<path fill-rule="evenodd" clip-rule="evenodd" d="M21 8V9.999L23.9738 10C23.9738 11.6478 22.6452 12.9854 21.0008 12.9999L21 13.999L23.9738 14C23.9738 15.6478 22.6452 16.9854 21.0008 16.9999L21 17.999L23.9738 18C23.9738 19.6478 22.6452 20.9854 21.0008 20.9999L21 24H11V21C9.40232 21 8.09634 19.7511 8.00509 18.1763L8 18L11 17.999V17C9.40232 17 8.09634 15.7511 8.00509 14.1763L8 14L11 13.999V13C9.40232 13 8.09634 11.7511 8.00509 10.1763L8 10L11 9.999V8H21ZM19 9H13V22H19V9ZM16 18C16.83 18 17.5 18.67 17.5 19.5C17.5 20.33 16.83 21 16 21C15.17 21 14.5 20.33 14.5 19.5C14.5 18.67 15.17 18 16 18ZM16 14C16.83 14 17.5 14.67 17.5 15.5C17.5 16.33 16.83 17 16 17C15.17 17 14.5 16.33 14.5 15.5C14.5 14.67 15.17 14 16 14ZM16 10C16.83 10 17.5 10.67 17.5 11.5C17.5 12.33 16.83 13 16 13C15.17 13 14.5 12.33 14.5 11.5C14.5 10.67 15.17 10 16 10Z" fill="black"/>
<circle cx="16" cy="16" r="15" fill="#004699" stroke="white" stroke-width="2"/>
<path fill-rule="evenodd" clip-rule="evenodd" d="M8 19V14.5L11.5 11H17.5L21 14.5H24V19H22.5C22.5 17.6193 21.3807 16.5 20 16.5C18.6193 16.5 17.5 17.6193 17.5 19H14C14 17.6193 12.8807 16.5 11.5 16.5C10.1193 16.5 9 17.6193 9 19H8ZM14.5 12V14.5H19.481L17 12H14.5ZM12 12L9.5 14.5H13.5V12H12ZM21.5 19C21.5 19.8284 20.8284 20.5 20 20.5C19.1716 20.5 18.5 19.8284 18.5 19C18.5 18.1716 19.1716 17.5 20 17.5C20.8284 17.5 21.5 18.1716 21.5 19ZM11.5 20.5C12.3284 20.5 13 19.8284 13 19C13 18.1716 12.3284 17.5 11.5 17.5C10.6716 17.5 10 18.1716 10 19C10 19.8284 10.6716 20.5 11.5 20.5Z" fill="white"/>
</svg>
