<svg width="32" height="32" viewBox="0 0 32 32" fill="none" xmlns="http://www.w3.org/2000/svg">
<circle cx="16" cy="16" r="15" fill="#009DEC" stroke="white" stroke-width="2"/>
<path fill-rule="evenodd" clip-rule="evenodd" d="M16.8335 9.55572L15.5789 8L13 11V12H8V24H23V16H20C22.2091 16 24 14.2091 24 12C24 9.79086 22.2091 8 20 8C18.7113 8 17.565 8.60939 16.8335 9.55572ZM16.2802 10.5263L14.7368 10.5263V12.2105L16.0055 12.2107C16.0018 12.1409 16 12.0707 16 12C16 11.4796 16.0994 10.9824 16.2802 10.5263ZM17.9999 15.4648L18 16H20C19.2714 16 18.5883 15.8052 17.9999 15.4648ZM9.68421 20.6316H11.3684V22.3158H9.68421V20.6316ZM14.7368 20.6316V22.3158H16.4211V20.6316H14.7368ZM19.7895 20.6316H21.4737V22.3158H19.7895V20.6316ZM11.3684 17.2632H9.68421V18.9474H11.3684V17.2632ZM14.7368 18.9474V17.2632H16.4211V18.9474H14.7368ZM21.4737 17.2632H19.7895V18.9474H21.4737V17.2632ZM9.68421 13.8947H11.3684V15.5789H9.68421V13.8947ZM14.7368 13.8947V15.5789H16.4211V13.8947H14.7368ZM20 15C18.3431 15 17 13.6569 17 12C17 10.3431 18.3431 9 20 9C21.6569 9 23 10.3431 23 12C23 13.6569 21.6569 15 20 15ZM20.6 9.6V12.6H19.4V9.6H20.6ZM20.6 14.4V13.2H19.4V14.4H20.6Z" fill="black"/>
<circle cx="16" cy="16" r="15" fill="#004699" stroke="white" stroke-width="2"/>
<path fill-rule="evenodd" clip-rule="evenodd" d="M16.8335 9.55572L15.5789 8L13 11V12H8V24H23V16H20C22.2091 16 24 14.2091 24 12C24 9.79086 22.2091 8 20 8C18.7113 8 17.565 8.60939 16.8335 9.55572ZM16.2802 10.5263L14.7368 10.5263V12.2105L16.0055 12.2107C16.0018 12.1409 16 12.0707 16 12C16 11.4796 16.0994 10.9824 16.2802 10.5263ZM17.9999 15.4648L18 16H20C19.2714 16 18.5883 15.8052 17.9999 15.4648ZM9.68421 20.6316H11.3684V22.3158H9.68421V20.6316ZM14.7368 20.6316V22.3158H16.4211V20.6316H14.7368ZM19.7895 20.6316H21.4737V22.3158H19.7895V20.6316ZM11.3684 17.2632H9.68421V18.9474H11.3684V17.2632ZM14.7368 18.9474V17.2632H16.4211V18.9474H14.7368ZM21.4737 17.2632H19.7895V18.9474H21.4737V17.2632ZM9.68421 13.8947H11.3684V15.5789H9.68421V13.8947ZM14.7368 13.8947V15.5789H16.4211V13.8947H14.7368ZM20 15C18.3431 15 17 13.6569 17 12C17 10.3431 18.3431 9 20 9C21.6569 9 23 10.3431 23 12C23 13.6569 21.6569 15 20 15ZM20.6 9.6V12.6H19.4V9.6H20.6ZM20.6 14.4V13.2H19.4V14.4H20.6Z" fill="white"/>
</svg>
