<svg width="32" height="32" viewBox="0 0 32 32" fill="none" xmlns="http://www.w3.org/2000/svg">
<circle cx="16" cy="16" r="15" fill="#009DEC" stroke="white" stroke-width="2"/>
<path fill-rule="evenodd" clip-rule="evenodd" d="M8 8H10V24H8V8ZM22 8H20V16H22V8ZM22 18V20H24V22H22V23.9818H20V22H18V20H20V18H22ZM16 8H14V12H16V8ZM14 14H16V18H14V14ZM16 20H14V24H16V20Z" fill="black"/>
<circle cx="16" cy="16" r="15" fill="#004699" stroke="white" stroke-width="2"/>
<path fill-rule="evenodd" clip-rule="evenodd" d="M9.99439 19.4959C10.0819 19.499 11.1675 19.5229 11.2439 19.5658L11.7629 19.8852C12.2763 20.2046 12.9265 20.2046 13.4398 19.8852L13.9888 19.5658C14.1815 19.4469 14.4248 19.4469 14.6176 19.5658L15.1266 19.8852C15.6362 20.2052 16.284 20.2052 16.7935 19.8852L17.3125 19.5658C17.5015 19.4463 17.7424 19.4463 17.9314 19.5658L18.4404 19.8852C18.9537 20.2046 19.604 20.2046 20.1173 19.8852L20.6263 19.5658C20.7421 19.5027 21.875 19.4782 22.0056 19.4959V20.1148H24V12H8V20.1148H9.99439V19.4959ZM20.9757 18.4978C20.6569 18.4836 20.3411 18.5635 20.0674 18.7274L19.5583 19.0368C19.3704 19.1252 19.1495 19.1062 18.9794 18.9869L18.4704 18.6775C17.957 18.3581 17.3068 18.3581 16.7935 18.6775L16.2845 18.9969C16.0905 19.1113 15.8496 19.1113 15.6556 18.9969L15.1466 18.6875C14.6371 18.3674 13.9893 18.3674 13.4797 18.6875L12.9607 19.0069C12.7692 19.1174 12.5333 19.1174 12.3419 19.0069L11.8228 18.6875C11.5712 18.5427 10.2846 18.4701 9.99439 18.4779V17.4797V17.5396C10.0819 17.5427 11.1675 17.5666 11.2439 17.6095L11.7629 17.9289C12.2763 18.2483 12.9265 18.2483 13.4398 17.9289L13.9888 17.5995C14.1815 17.4806 14.4248 17.4806 14.6176 17.5995L15.1266 17.9189C15.6375 18.2342 16.2826 18.2342 16.7935 17.9189L17.3125 17.5995C17.5015 17.48 17.7424 17.48 17.9314 17.5995L18.4404 17.9189C18.9563 18.2291 19.6014 18.2291 20.1173 17.9189L20.6263 17.5995C20.7421 17.5364 21.875 17.5119 22.0056 17.5296V18.5278L20.9757 18.4978ZM21.9757 16.5016C21.6569 16.4874 20.3411 16.5672 20.0674 16.7311L19.5583 17.0405C19.3694 17.1601 19.1285 17.1601 18.9395 17.0405L18.4304 16.7311C17.9171 16.4117 17.2669 16.4117 16.7536 16.7311L16.2445 17.0405C16.0518 17.1594 15.8085 17.1594 15.6157 17.0405L15.1067 16.7311C14.5971 16.4111 13.9493 16.4111 13.4398 16.7311L12.9208 17.0405C12.7318 17.1601 12.4909 17.1601 12.3019 17.0405L11.7829 16.7311C11.544 16.5898 10.272 16.5141 9.99439 16.5115V15.2539V13.9963H21.9757V16.5016Z" fill="white"/>
</svg>
