<svg width="32" height="32" viewBox="0 0 32 32" fill="none" xmlns="http://www.w3.org/2000/svg">
<circle cx="16" cy="16" r="15" fill="#009DEC" stroke="white" stroke-width="2"/>
<path fill-rule="evenodd" clip-rule="evenodd" d="M10 12V11H14V9H18V11H22V12H10ZM15 11H17V10H15V11ZM21 13L20 21H12L10.9955 13H21ZM14 14H13V20H19V14H18V19H14V14ZM13 23C13.5523 23 14 22.5523 14 22H12C12 22.5523 12.4477 23 13 23ZM19 23C19.5523 23 20 22.5523 20 22H18C18 22.5523 18.4477 23 19 23Z" fill="black"/>
<circle cx="16" cy="16" r="15" fill="#004699" stroke="white" stroke-width="2"/>
<path fill-rule="evenodd" clip-rule="evenodd" d="M10 12V11H14V9H18V11H22V12H10ZM15 11H17V10H15V11ZM21 13L20 21H12L10.9955 13H21ZM14 14H13V20H19V14H18V19H14V14ZM13 23C13.5523 23 14 22.5523 14 22H12C12 22.5523 12.4477 23 13 23ZM19 23C19.5523 23 20 22.5523 20 22H18C18 22.5523 18.4477 23 19 23Z" fill="white"/>
</svg>
