<svg width="32" height="32" viewBox="0 0 32 32" fill="none" xmlns="http://www.w3.org/2000/svg">
<circle cx="16" cy="16" r="15" fill="#009DEC" stroke="white" stroke-width="2"/>
<path fill-rule="evenodd" clip-rule="evenodd" d="M22 12H21L22.9944 15H20V17H18V15H15L16.9609 12L16 12.0244L19.0024 8L22 12ZM10.6827 18.8824C11.1031 18.8824 11.3738 19.0655 11.6765 19.2702C12.0599 19.5296 12.4945 19.8235 13.3493 19.8235C14.2181 19.8235 14.6383 19.5322 15.011 19.2737C15.3083 19.0676 15.5755 18.8824 16.016 18.8824C16.4364 18.8824 16.7072 19.0655 17.0098 19.2702C17.3933 19.5296 17.8279 19.8235 18.6827 19.8235C19.5515 19.8235 19.9716 19.5322 20.3444 19.2737C20.6416 19.0676 20.9088 18.8824 21.3493 18.8824C21.7719 18.8824 22.0401 19.0637 22.3412 19.2672C22.7191 19.5227 23.1487 19.8131 24 19.8235V17.9412C23.5796 17.9412 23.3088 17.758 23.0062 17.5533C22.6227 17.294 22.1881 17 21.3333 17C20.4646 17 20.0444 17.2913 19.6716 17.5498C19.3744 17.7559 19.1072 17.9412 18.6667 17.9412C18.2463 17.9412 17.9755 17.758 17.6729 17.5533C17.2894 17.294 16.8548 17 16 17C15.1312 17 14.7111 17.2913 14.3383 17.5498C14.041 17.7559 13.7739 17.9412 13.3333 17.9412C12.913 17.9412 12.6422 17.758 12.3395 17.5533C11.9561 17.294 11.5215 17 10.6667 17C9.79789 17 9.37776 17.2913 9.00497 17.5498C8.7077 17.7559 8.44054 17.9412 8 17.9412V19.8235C8.85093 19.8235 9.29359 19.5292 9.68379 19.2697C9.99129 19.0652 10.2662 18.8824 10.6827 18.8824ZM21.336 20.8235C20.4681 20.8235 20.0484 21.1148 19.676 21.3733C19.379 21.5795 19.1121 21.7647 18.672 21.7647C18.252 21.7647 17.9815 21.5816 17.6792 21.3768C17.2961 21.1175 16.862 20.8235 16.008 20.8235C15.1401 20.8235 14.7179 21.1148 14.3433 21.3733C14.0446 21.5795 13.7761 21.7647 13.336 21.7647C12.8959 21.7647 12.629 21.5795 12.332 21.3733C11.9596 21.1148 11.5399 20.8235 10.672 20.8235C9.8041 20.8235 9.38191 21.1148 9.0073 21.3733C8.70857 21.5795 8.4401 21.7647 8 21.7647V23.6471C8.86946 23.6471 9.29409 23.3547 9.67002 23.0959C9.96859 22.8903 10.2364 22.7059 10.672 22.7059C11.1121 22.7059 11.379 22.8911 11.676 23.0973C12.0484 23.3557 12.4681 23.6471 13.336 23.6471C14.2039 23.6471 14.6261 23.3557 15.0007 23.0973C15.2994 22.8911 15.5679 22.7059 16.008 22.7059C16.428 22.7059 16.6985 22.889 17.0008 23.0937C17.3839 23.3531 17.818 23.6471 18.672 23.6471C19.5345 23.6471 19.9547 23.3564 20.3281 23.0981C20.6267 22.8917 20.8953 22.7059 21.336 22.7059C21.756 22.7059 22.0265 22.889 22.3288 23.0937C22.7119 23.3531 23.146 23.6471 24 23.6471V21.7647C23.5599 21.7647 23.293 21.5795 22.996 21.3733C22.6236 21.1148 22.2039 20.8235 21.336 20.8235Z" fill="black"/>
<circle cx="16" cy="16" r="15" fill="#004699" stroke="white" stroke-width="2"/>
<path d="M19.1423 14.9958H20.5381L15.6528 8L10.8023 14.9958H12.1632L9.44141 19.1933H14.2709V21.9916H17.0346V19.1933H21.9339L19.1423 14.9958Z" fill="white"/>
<path d="M10.5754 23.2312C11.4902 23.2312 11.667 24 13.1354 24C14.6345 24 14.7421 23.2312 15.6954 23.2312C16.6102 23.2312 16.787 24 18.2554 24C19.7545 24 19.8621 23.2312 20.8154 23.2312C21.7302 23.2312 21.8917 23.9846 23.36 24V22.4625C22.4452 22.4625 22.2684 21.6937 20.8 21.6937C19.3009 21.6937 19.1933 22.4625 18.24 22.4625C17.3252 22.4625 17.1483 21.6937 15.68 21.6937C14.1809 21.6937 14.0733 22.4625 13.12 22.4625C12.2052 22.4625 12.0283 21.6937 10.56 21.6937C9.0609 21.6937 8.95327 22.4625 8 22.4625V24C9.46066 24 9.66823 23.2312 10.5754 23.2312Z" fill="white"/>
</svg>
